<svg width="48" height="24" viewBox="0 0 48 24" fill="none" xmlns="http://www.w3.org/2000/svg">
<path d="M4.5 11.9002H4V12.9002H4.5V11.9002ZM42 12.4002L42.2864 12.8101L42.8908 12.3876L42.2747 11.9825L42 12.4002ZM37.0685 6.82572L36.894 6.35717L35.9569 6.70621L36.1314 7.17477L37.0685 6.82572ZM36.161 17.5609L35.9216 17.9998L36.7996 18.4786L37.0389 18.0396L36.161 17.5609ZM4.5 12.9002H42V11.9002H4.5V12.9002ZM36.1314 7.17477C36.3907 7.87083 36.8884 8.56841 37.4539 9.20809C38.0244 9.85351 38.6905 10.4692 39.3193 11.0004C39.9493 11.5325 40.5492 11.9857 40.9912 12.3058C41.2125 12.466 41.3948 12.5933 41.5223 12.6808C41.5861 12.7246 41.6362 12.7585 41.6707 12.7816C41.6879 12.7932 41.7012 12.8021 41.7104 12.8082C41.715 12.8112 41.7186 12.8136 41.721 12.8152C41.7223 12.816 41.7232 12.8167 41.7239 12.8171C41.7243 12.8174 41.7246 12.8176 41.7248 12.8177C41.7249 12.8178 41.725 12.8179 41.7251 12.8179C41.7252 12.8179 41.7252 12.818 42 12.4002C42.2747 11.9825 42.2748 11.9825 42.2748 11.9825C42.2748 11.9825 42.2748 11.9825 42.2747 11.9825C42.2747 11.9825 42.2746 11.9824 42.2744 11.9823C42.274 11.982 42.2733 11.9816 42.2724 11.981C42.2706 11.9798 42.2677 11.9778 42.2637 11.9752C42.2559 11.97 42.2439 11.962 42.228 11.9514C42.1963 11.9301 42.1491 11.8982 42.0884 11.8565C41.9669 11.773 41.7915 11.6506 41.5777 11.4958C41.1497 11.1859 40.5706 10.7483 39.9646 10.2364C39.3575 9.72363 38.7305 9.14237 38.2031 8.54576C37.6706 7.94339 37.2653 7.35387 37.0685 6.82572L36.1314 7.17477ZM42 12.4002C41.7135 11.9904 41.7134 11.9905 41.7134 11.9905C41.7133 11.9906 41.7132 11.9907 41.7131 11.9907C41.7129 11.9909 41.7127 11.991 41.7124 11.9913C41.7117 11.9917 41.7109 11.9923 41.7097 11.9931C41.7075 11.9946 41.7044 11.9969 41.7003 11.9997C41.6921 12.0055 41.6803 12.0139 41.6649 12.0248C41.6342 12.0467 41.5896 12.0787 41.5325 12.1202C41.4185 12.2032 41.2548 12.3241 41.0543 12.4772C40.6535 12.7831 40.104 13.2189 39.5084 13.7385C38.3304 14.7664 36.9223 16.1649 36.161 17.5609L37.0389 18.0396C37.7101 16.8089 39.002 15.5075 40.1659 14.492C40.7412 13.99 41.2731 13.5682 41.6611 13.2721C41.8549 13.1241 42.0123 13.0078 42.1209 12.9289C42.1751 12.8894 42.2171 12.8593 42.2452 12.8392C42.2593 12.8292 42.2699 12.8217 42.2768 12.8168C42.2803 12.8144 42.2828 12.8126 42.2844 12.8114C42.2853 12.8109 42.2858 12.8105 42.2862 12.8102C42.2863 12.8101 42.2864 12.8101 42.2865 12.81C42.2865 12.81 42.2865 12.81 42.2865 12.81C42.2865 12.81 42.2864 12.8101 42 12.4002Z" fill="#E58411"/>
</svg>
