<svg width="28" height="28" viewBox="0 0 28 28" fill="none" xmlns="http://www.w3.org/2000/svg">
<path d="M22.6958 13.3485H23.7828V15.5224H22.6958V13.3485ZM5.48568 14.4355L4.86294 15.3264L3.54922 14.4081L4.88842 13.5273L5.48568 14.4355ZM10.3366 8.18652L10.716 7.16793L12.7532 7.92672L12.3738 8.94532L10.3366 8.18652ZM12.3095 19.7846L12.8299 20.7389L10.9214 21.7797L10.401 20.8255L12.3095 19.7846ZM22.6958 15.5224H5.48568V13.3485H22.6958V15.5224ZM12.3738 8.94532C12.058 9.79316 11.4669 10.6101 10.8343 11.3257C10.1907 12.0538 9.44547 12.7418 8.7501 13.3291C8.05227 13.9185 7.389 14.4196 6.90087 14.773C6.65629 14.9501 6.4544 15.0911 6.31251 15.1885C6.24154 15.2372 6.18549 15.2751 6.14653 15.3013C6.12705 15.3144 6.11183 15.3245 6.10114 15.3316C6.0958 15.3351 6.09159 15.3379 6.08854 15.3399C6.08702 15.341 6.08579 15.3418 6.08485 15.3424C6.08439 15.3427 6.08399 15.343 6.08367 15.3432C6.08351 15.3433 6.08333 15.3434 6.08325 15.3434C6.08309 15.3435 6.08294 15.3436 5.48568 14.4355C4.88842 13.5273 4.88832 13.5274 4.88822 13.5275C4.88822 13.5275 4.88815 13.5275 4.88813 13.5275C4.88811 13.5275 4.88816 13.5275 4.88829 13.5274C4.88853 13.5272 4.88907 13.5269 4.8899 13.5263C4.89155 13.5253 4.89435 13.5234 4.89827 13.5208C4.9061 13.5156 4.9184 13.5074 4.93489 13.4963C4.96787 13.4742 5.0176 13.4406 5.08195 13.3964C5.21072 13.308 5.39769 13.1775 5.62594 13.0122C6.08346 12.6809 6.70172 12.2136 7.34737 11.6683C7.99548 11.1209 8.65573 10.5078 9.20557 9.88586C9.76645 9.2514 10.1568 8.66934 10.3366 8.18652L12.3738 8.94532ZM5.48568 14.4355C6.10842 13.5446 6.10855 13.5447 6.10871 13.5448C6.10878 13.5449 6.10895 13.545 6.10909 13.5451C6.10939 13.5453 6.10975 13.5455 6.11017 13.5458C6.11101 13.5464 6.11212 13.5472 6.11349 13.5482C6.11622 13.5501 6.11998 13.5527 6.12475 13.5561C6.13429 13.5628 6.14786 13.5724 6.16523 13.5848C6.19997 13.6096 6.24998 13.6454 6.3135 13.6916C6.4405 13.784 6.62179 13.9179 6.84342 14.0871C7.28602 14.425 7.89289 14.9062 8.55121 15.4806C9.8394 16.6046 11.4331 18.1775 12.3095 19.7846L10.401 20.8255C9.72043 19.5776 8.37932 18.2157 7.12198 17.1187C6.50753 16.5825 5.93895 16.1316 5.52428 15.8151C5.31728 15.6571 5.14949 15.5332 5.03456 15.4495C4.97712 15.4077 4.93295 15.3761 4.90376 15.3553C4.88917 15.3449 4.87832 15.3372 4.87145 15.3324C4.86801 15.3299 4.86557 15.3282 4.86414 15.3272C4.86343 15.3267 4.86297 15.3264 4.86277 15.3262C4.86267 15.3262 4.86263 15.3261 4.86266 15.3262C4.86268 15.3262 4.86275 15.3262 4.86275 15.3262C4.86284 15.3263 4.86294 15.3264 5.48568 14.4355Z" fill="#1E1E1E"/>
</svg>
