<svg width="19" height="19" viewBox="0 0 19 19" fill="none" xmlns="http://www.w3.org/2000/svg">
  <path d="M13.3056 10.542L13.3014 10.5461C12.9858 10.8519 12.8415 11.2934 12.9131 11.7257L12.9144 
  11.7328L13.5914 15.4796C13.5914 15.4797 13.5914 15.4798 13.5914 15.4799V15.48C13.6136 15.6039 13.5614 
  15.7299 13.4566 15.8022L13.4565 15.802L13.4457 15.81C13.3417 15.886 13.2019 15.8961 13.0859 
  15.8339H13.086L13.0809 15.8312L9.70942 14.0728C9.52232 13.9736 9.31695 13.9216 9.10995 13.9156L9.10281 
  13.9154H9.09567H8.88928H8.85225L8.81562 13.9209C8.69028 13.9396 8.56512 13.9796 8.44817 14.0429L5.08224 
  15.8064C5.01143 15.8412 4.93252 15.8538 4.85519 15.8428C4.67582 15.8053 4.55619 15.6334 4.58409 
  15.4513L5.26098 11.7093H5.26105L5.26235 11.7014C5.33362 11.2677 5.18988 10.8266 4.87681 10.5184L4.87401 
  10.5157L2.12401 7.85016C2.12399 7.85014 2.12397 7.85012 2.12394 7.85009C2.03304 7.76185 2.00222 7.6306 
  2.04325 7.51256L2.04459 7.50866C2.08695 7.38348 2.19424 7.29269 2.32344 7.27148L6.09599 6.72419C6.54962 
  6.67347 6.94662 6.39595 7.15067 5.98784L7.15069 5.98785L7.15285 5.98342L8.81735 2.57079C8.82959 2.54804 
  8.84323 2.52876 8.85728 2.51292L8.89922 2.48029L8.93381 2.45339L8.95345 2.43166L8.97014 2.42554L8.97927 
  2.42219L8.98826 2.41848L9.02627 2.40283H9.21656C9.3265 2.42058 9.42106 2.4885 9.47235 2.58614L11.1591 
  5.98398C11.1593 5.98442 11.1595 5.98485 11.1598 5.98529C11.3543 6.38181 11.731 6.65584 12.1647 
  6.72229V6.7223L12.1686 6.72288L15.9538 7.272L15.9549 7.27216C16.0875 7.29111 16.1991 7.38206 16.2448 
  7.50805C16.2819 7.62743 16.2479 7.75784 16.1556 7.8444L16.1541 7.84589L13.3056 10.542Z" stroke="#F6B76F"/>
</svg>
