<svg width="14" height="15" viewBox="0 0 14 15" fill="none" xmlns="http://www.w3.org/2000/svg">
<path d="M10.452 8.77195C10.3009 8.91837 10.2315 9.13012 10.2659 9.33779L10.7845 12.2078C10.8283 12.451 10.7256 12.6972 10.522 12.8378C10.3225 12.9836 10.0571 13.0011 9.83953 12.8845L7.25594 11.537C7.16611 11.4891 7.06636 11.4635 6.96428 11.4605H6.80619C6.75136 11.4687 6.69769 11.4862 6.64869 11.513L4.06453 12.867C3.93678 12.9311 3.79211 12.9539 3.65036 12.9311C3.30503 12.8658 3.07461 12.5368 3.13119 12.1897L3.65036 9.31971C3.68478 9.11029 3.61536 8.89737 3.46428 8.74862L1.35786 6.70695C1.18169 6.53604 1.12044 6.27937 1.20094 6.04779C1.27911 5.81679 1.47861 5.6482 1.71953 5.61029L4.61869 5.1897C4.83919 5.16695 5.03286 5.03279 5.13203 4.83445L6.40953 2.21529C6.43986 2.15695 6.47894 2.10329 6.52619 2.05779L6.57869 2.01695C6.60611 1.98662 6.63761 1.96154 6.67261 1.94112L6.73619 1.91779L6.83536 1.87695H7.08094C7.30028 1.8997 7.49336 2.03095 7.59428 2.22695L8.88869 4.83445C8.98203 5.0252 9.16344 5.15762 9.37286 5.1897L12.272 5.61029C12.517 5.64529 12.7218 5.81445 12.8029 6.04779C12.8793 6.2817 12.8134 6.53837 12.6337 6.70695L10.452 8.77195Z" fill="#F6973F"/>
</svg>
