<svg width="104" height="19" viewBox="0 0 104 19" fill="none" xmlns="http://www.w3.org/2000/svg">
<path d="M13.9727 10.9081C13.7754 11.0993 13.6848 11.3758 13.7297 11.6469L14.4068 15.3941C14.4639 15.7117 14.3299 16.0331 14.0641 16.2166C13.8036 16.407 13.4571 16.4299 13.173 16.2775L9.79981 14.5182C9.68252 14.4557 9.55228 14.4222 9.419 14.4184H9.21261C9.14101 14.4291 9.07095 14.4519 9.00697 14.487L5.63304 16.2547C5.46625 16.3385 5.27737 16.3682 5.0923 16.3385C4.64142 16.2532 4.34059 15.8236 4.41446 15.3705L5.0923 11.6233C5.13723 11.3499 5.0466 11.0719 4.84934 10.8777L2.09917 8.21201C1.86916 7.98886 1.78919 7.65375 1.8943 7.35138C1.99635 7.04978 2.25682 6.82968 2.57137 6.78017L6.35657 6.23105C6.64446 6.20134 6.89731 6.02617 7.02678 5.76722L8.69471 2.34756C8.73431 2.2714 8.78534 2.20133 8.84703 2.14192L8.91558 2.08861C8.95137 2.04901 8.9925 2.01626 9.0382 1.9896L9.12121 1.95914L9.25069 1.90582H9.57132C9.85769 1.93553 10.1098 2.10689 10.2415 2.36279L11.9316 5.76722C12.0534 6.01627 12.2903 6.18916 12.5637 6.23105L16.3489 6.78017C16.6688 6.82587 16.9361 7.04674 17.042 7.35138C17.1417 7.65679 17.0557 7.9919 16.8211 8.21201L13.9727 10.9081Z" fill="#F6B76F"/>
<path d="M35.2949 10.9091C35.0977 11.1003 35.007 11.3767 35.052 11.6479L35.7291 15.395C35.7862 15.7126 35.6521 16.034 35.3863 16.2176C35.1259 16.408 34.7793 16.4308 34.4952 16.2785L31.1221 14.5192C31.0048 14.4567 30.8745 14.4232 30.7413 14.4194H30.5349C30.4633 14.4301 30.3932 14.4529 30.3292 14.488L26.9553 16.2557C26.7885 16.3394 26.5996 16.3691 26.4146 16.3394C25.9637 16.2541 25.6629 15.8246 25.7367 15.3714L26.4146 11.6243C26.4595 11.3509 26.3689 11.0729 26.1716 10.8786L23.4214 8.21299C23.1914 7.98983 23.1115 7.65472 23.2166 7.35236C23.3186 7.05076 23.5791 6.83065 23.8936 6.78115L27.6788 6.23202C27.9667 6.20232 28.2196 6.02715 28.3491 5.7682L30.017 2.34854C30.0566 2.27238 30.1076 2.20231 30.1693 2.1429L30.2378 2.08959C30.2736 2.04998 30.3148 2.01723 30.3605 1.99058L30.4435 1.96011L30.573 1.9068H30.8936C31.18 1.9365 31.432 2.10787 31.5638 2.36377L33.2538 5.7682C33.3757 6.01725 33.6125 6.19013 33.886 6.23202L37.6712 6.78115C37.991 6.82685 38.2584 7.04771 38.3642 7.35236C38.464 7.65777 38.3779 7.99288 38.1434 8.21299L35.2949 10.9091Z" fill="#F6B76F"/>
<path d="M56.6231 10.9091C56.4258 11.1003 56.3352 11.3767 56.3801 11.6479L57.0572 15.395C57.1143 15.7126 56.9803 16.034 56.7145 16.2176C56.454 16.408 56.1075 16.4308 55.8234 16.2785L52.4502 14.5192C52.3329 14.4567 52.2027 14.4232 52.0694 14.4194H51.863C51.7914 14.4301 51.7213 14.4529 51.6574 14.488L48.2834 16.2557C48.1166 16.3394 47.9278 16.3691 47.7427 16.3394C47.2918 16.2541 46.991 15.8246 47.0649 15.3714L47.7427 11.6243C47.7876 11.3509 47.697 11.0729 47.4997 10.8786L44.7496 8.21299C44.5196 7.98983 44.4396 7.65472 44.5447 7.35236C44.6467 7.05076 44.9072 6.83065 45.2218 6.78115L49.007 6.23202C49.2949 6.20232 49.5477 6.02715 49.6772 5.7682L51.3451 2.34854C51.3847 2.27238 51.4357 2.20231 51.4974 2.1429L51.566 2.08959C51.6018 2.04998 51.6429 2.01723 51.6886 1.99058L51.7716 1.96011L51.9011 1.9068H52.2217C52.5081 1.9365 52.7602 2.10787 52.8919 2.36377L54.582 5.7682C54.7038 6.01725 54.9407 6.19013 55.2141 6.23202L58.9993 6.78115C59.3192 6.82685 59.5865 7.04771 59.6924 7.35236C59.7921 7.65777 59.7061 7.99288 59.4715 8.21299L56.6231 10.9091Z" fill="#F6B76F"/>
<path d="M77.9502 10.9091C77.753 11.1003 77.6623 11.3767 77.7073 11.6479L78.3843 15.395C78.4415 15.7126 78.3074 16.034 78.0416 16.2176C77.7811 16.408 77.4346 16.4308 77.1505 16.2785L73.7774 14.5192C73.6601 14.4567 73.5298 14.4232 73.3965 14.4194H73.1901C73.1186 14.4301 73.0485 14.4529 72.9845 14.488L69.6106 16.2557C69.4438 16.3394 69.2549 16.3691 69.0698 16.3394C68.619 16.2541 68.3181 15.8246 68.392 15.3714L69.0698 11.6243C69.1148 11.3509 69.0241 11.0729 68.8269 10.8786L66.0767 8.21299C65.8467 7.98983 65.7667 7.65472 65.8718 7.35236C65.9739 7.05076 66.2344 6.83065 66.5489 6.78115L70.3341 6.23202C70.622 6.20232 70.8749 6.02715 71.0043 5.7682L72.6723 2.34854C72.7119 2.27238 72.7629 2.20231 72.8246 2.1429L72.8931 2.08959C72.9289 2.04998 72.97 2.01723 73.0157 1.99058L73.0988 1.96011L73.2282 1.9068H73.5489C73.8352 1.9365 74.0873 2.10787 74.2191 2.36377L75.9091 5.7682C76.031 6.01725 76.2678 6.19013 76.5412 6.23202L80.3264 6.78115C80.6463 6.82685 80.9136 7.04771 81.0195 7.35236C81.1193 7.65777 81.0332 7.99288 80.7986 8.21299L77.9502 10.9091Z" fill="#F6B76F"/>
<path d="M99.2725 10.9091C99.0752 11.1003 98.9846 11.3767 99.0295 11.6479L99.7066 15.395C99.7637 15.7126 99.6297 16.034 99.3639 16.2176C99.1034 16.408 98.7569 16.4308 98.4728 16.2785L95.0996 14.5192C94.9823 14.4567 94.8521 14.4232 94.7188 14.4194H94.5124C94.4408 14.4301 94.3708 14.4529 94.3068 14.488L90.9328 16.2557C90.7661 16.3394 90.5772 16.3691 90.3921 16.3394C89.9412 16.2541 89.6404 15.8246 89.7143 15.3714L90.3921 11.6243C90.437 11.3509 90.3464 11.0729 90.1491 10.8786L87.399 8.21299C87.169 7.98983 87.089 7.65472 87.1941 7.35236C87.2962 7.05076 87.5566 6.83065 87.8712 6.78115L91.6564 6.23202C91.9443 6.20232 92.1971 6.02715 92.3266 5.7682L93.9945 2.34854C94.0341 2.27238 94.0852 2.20231 94.1468 2.1429L94.2154 2.08959C94.2512 2.04998 94.2923 2.01723 94.338 1.99058L94.421 1.96011L94.5505 1.9068H94.8711C95.1575 1.9365 95.4096 2.10787 95.5414 2.36377L97.2314 5.7682C97.3532 6.01725 97.5901 6.19013 97.8635 6.23202L101.649 6.78115C101.969 6.82685 102.236 7.04771 102.342 7.35236C102.442 7.65777 102.355 7.99288 102.121 8.21299L99.2725 10.9091Z" fill="#F6B76F"/>
</svg>
